<svg width="20" height="20" viewBox="0 0 20 20" fill="none" xmlns="http://www.w3.org/2000/svg">
<path d="M1.07752 9.41089L6.91085 3.57755C7.06802 3.42576 7.27852 3.34176 7.49702 3.34366C7.71552 3.34556 7.92453 3.4332 8.07904 3.58771C8.23354 3.74221 8.32118 3.95122 8.32308 4.16972C8.32498 4.38822 8.24099 4.59872 8.08919 4.75589L3.67835 9.16672H18.3334C18.5544 9.16672 18.7663 9.25452 18.9226 9.4108C19.0789 9.56708 19.1667 9.77904 19.1667 10.0001C19.1667 10.2211 19.0789 10.433 18.9226 10.5893C18.7663 10.7456 18.5544 10.8334 18.3334 10.8334H3.67835L8.08919 15.2442C8.16878 15.3211 8.23226 15.413 8.27594 15.5147C8.31961 15.6164 8.3426 15.7257 8.34356 15.8364C8.34452 15.947 8.32344 16.0568 8.28154 16.1592C8.23964 16.2616 8.17776 16.3546 8.09952 16.4329C8.02127 16.5111 7.92823 16.573 7.82582 16.6149C7.7234 16.6568 7.61367 16.6779 7.50302 16.6769C7.39237 16.676 7.28302 16.653 7.18135 16.6093C7.07968 16.5656 6.98773 16.5021 6.91085 16.4226L1.07752 10.5892C0.921295 10.4329 0.833532 10.221 0.833532 10.0001C0.833532 9.77908 0.921295 9.56716 1.07752 9.41089Z" fill="#46BC8A"/>
</svg>
