<svg width="18" height="18" viewBox="0 0 18 18" fill="none" xmlns="http://www.w3.org/2000/svg">
<path d="M13.8615 8.99988C13.4774 8.99988 13.167 9.31105 13.167 9.6943V15.2501C13.167 15.6327 12.8559 15.9445 12.4726 15.9445H2.75003C2.36665 15.9445 2.05561 15.6327 2.05561 15.2501V5.5275C2.05561 5.14487 2.36665 4.83307 2.75003 4.83307H8.30582C8.68985 4.83307 9.00024 4.52193 9.00024 4.13865C9.00024 3.75527 8.68985 3.44409 8.30582 3.44409H2.75003C1.60139 3.44409 0.666626 4.37886 0.666626 5.5275V15.2501C0.666626 16.3988 1.60139 17.3335 2.75003 17.3335H12.4726C13.6213 17.3335 14.556 16.3988 14.556 15.2501V9.6943C14.556 9.31031 14.2455 8.99988 13.8615 8.99988Z" fill="#DAF2E8"/>
<path d="M7.17793 8.36728C7.12966 8.41577 7.0966 8.4773 7.08281 8.54431L6.59184 11.0001C6.56896 11.1139 6.60506 11.2312 6.68696 11.3139C6.71928 11.3461 6.75764 11.3716 6.79983 11.389C6.84202 11.4064 6.88723 11.4153 6.93287 11.4152C6.955 11.4152 6.97802 11.4132 7.0009 11.4084L9.45587 10.9174C9.52391 10.9034 9.58569 10.8709 9.63364 10.8222L15.1283 5.3275L12.6733 2.87267L7.17793 8.36728ZM16.8255 1.17472C16.1485 0.497585 15.047 0.497585 14.3705 1.17472L13.4094 2.13579L15.8644 4.59076L16.8255 3.62956C17.1533 3.3025 17.3339 2.86632 17.3339 2.40243C17.3339 1.93855 17.1533 1.5024 16.8255 1.17472Z" fill="#DAF2E8"/>
</svg>
