<svg width="19" height="20" viewBox="0 0 19 20" fill="none" xmlns="http://www.w3.org/2000/svg">
<path d="M15.8142 20H2.76384C1.53204 20 0.5 19.0012 0.5 17.7362V7.64877C0.5 6.98294 0.799626 6.3504 1.33229 5.9176L7.85747 0.524345C8.68976 -0.174781 9.88826 -0.174781 10.7206 0.524345L17.2457 5.88431C17.7784 6.3171 18.078 6.94965 18.078 7.61548V17.7029C18.078 19.0012 17.046 20 15.8142 20ZM9.28901 1.35664C9.08926 1.35664 8.85622 1.42322 8.68976 1.55639L2.16459 6.94965C1.96484 7.1161 1.83167 7.38244 1.83167 7.64877V17.7362C1.83167 18.2355 2.23117 18.6683 2.76384 18.6683H15.8142C16.3136 18.6683 16.7464 18.2688 16.7464 17.7362V7.64877C16.7464 7.38244 16.6132 7.1161 16.4134 6.94965L9.88826 1.55639C9.72181 1.42322 9.48876 1.35664 9.28901 1.35664Z" fill="#999999"/>
<path d="M13.284 17.0703H5.29401C4.9278 17.0703 4.62817 16.7707 4.62817 16.4045C4.62817 16.0383 4.9278 15.7386 5.29401 15.7386H13.284C13.6502 15.7386 13.9499 16.0383 13.9499 16.4045C13.9499 16.7707 13.6502 17.0703 13.284 17.0703Z" fill="#999999"/>
</svg>
